<?xml version="1.0" encoding="UTF-8"?>
<svg version="1.1" xmlns="http://www.w3.org/2000/svg" width="45" height="45">
<path d="M0,0 L45,0 L45,45 L0,45 Z " fill="#F6FBF7" transform="translate(0,0)"/>
<path d="M0,0 L5,0 L5,1 L7,1 L7,2 L8,2 L8,3 L9,3 L9,4 L10,4 L10,6 L11,6 L11,9 L12,9 L12,8 L17,8 L17,9 L19,9 L19,11 L20,11 L20,12 L21,12 L21,16 L20,16 L20,17 L25,17 L25,18 L26,18 L26,19 L27,19 L27,21 L28,21 L28,28 L27,28 L27,30 L26,30 L26,31 L25,31 L25,32 L23,32 L23,29 L10,29 L10,33 L6,33 L6,35 L5,35 L5,29 L-8,29 L-8,31 L-10,31 L-10,30 L-11,30 L-11,29 L-12,29 L-12,28 L-13,28 L-13,26 L-14,26 L-14,23 L-13,23 L-13,21 L-12,21 L-12,19 L-11,19 L-11,17 L-10,17 L-10,16 L-9,16 L-9,15 L-8,15 L-8,14 L-6,14 L-6,7 L-5,7 L-5,5 L-4,5 L-4,3 L-3,3 L-3,2 L-2,2 L-2,1 L0,1 Z " fill="#2AA847" transform="translate(15,2)"/>
<path d="M0,0 L45,0 L45,29 L44,29 L44,25 L43,25 L43,23 L42,23 L42,21 L41,21 L41,20 L40,20 L40,19 L35,19 L35,18 L36,18 L36,14 L35,14 L35,13 L34,13 L34,11 L32,11 L32,10 L27,10 L27,11 L26,11 L26,8 L25,8 L25,6 L24,6 L24,5 L23,5 L23,4 L22,4 L22,3 L20,3 L20,2 L15,2 L15,3 L13,3 L13,4 L12,4 L12,5 L11,5 L11,7 L10,7 L10,9 L9,9 L9,16 L7,16 L7,17 L6,17 L6,18 L5,18 L5,19 L4,19 L4,21 L3,21 L3,23 L2,23 L2,25 L1,25 L1,31 L0,31 Z " fill="#FBFDFC" transform="translate(0,0)"/>
<path d="M0,0 L13,0 L13,3 L14,3 L14,8 L13,8 L13,10 L12,10 L12,11 L11,11 L11,12 L3,12 L3,11 L2,11 L2,10 L1,10 L1,9 L0,9 L0,8 L-1,8 L-1,4 L0,4 Z " fill="#54B86B" transform="translate(25,31)"/>
<path d="M0,0 L13,0 L13,6 L14,6 L14,8 L13,8 L13,10 L12,10 L12,11 L11,11 L11,12 L3,12 L3,11 L2,11 L2,10 L1,10 L1,9 L0,9 L0,8 L-1,8 L-1,2 L0,2 Z " fill="#56B86D" transform="translate(7,31)"/>
<path d="M0,0 L7,0 L7,2 L6,2 L6,4 L8,4 L8,3 L9,3 L9,0 L11,0 L11,7 L10,7 L10,8 L1,8 L1,7 L0,7 Z " fill="#F2F9F4" transform="translate(8,32)"/>
<path d="M0,0 L4,0 L4,2 L3,2 L3,4 L6,4 L6,0 L11,0 L11,7 L10,7 L10,8 L1,8 L1,7 L0,7 Z " fill="#F7FCF8" transform="translate(26,32)"/>
<path d="M0,0 L13,0 L13,7 L12,7 L12,1 L7,1 L7,5 L4,5 L4,3 L5,3 L5,1 L1,1 L1,5 L0,5 L0,8 L-1,8 L-1,4 L0,4 Z " fill="#6EC382" transform="translate(25,31)"/>
<path d="M0,0 L7,0 L7,2 L6,2 L6,4 L1,4 L1,7 L0,7 Z " fill="#DAEFDF" transform="translate(8,32)"/>
<path d="M0,0 L2,0 L2,2 L1,2 L1,4 L0,4 L0,5 L-1,5 L-1,6 L-9,6 L-9,5 L-2,5 L-2,4 L-9,4 L-9,3 L-1,3 L-1,2 L0,2 Z " fill="#6EC282" transform="translate(19,37)"/>
</svg>
